<svg width="16" height="15" viewBox="0 0 16 15" fill="none" xmlns="http://www.w3.org/2000/svg">
    <path d="M11.6076 0H4.72832C2.48941 0 0.667969 1.82144 0.667969 4.06036V10.9397C0.667969 13.1785 2.48941 15 4.72832 15H11.6077C13.8465 15 15.6679 13.1785 15.6679 10.9397V4.06036C15.6679 1.82144 13.8465 0 11.6076 0V0ZM8.16795 11.6014C5.90638 11.6014 4.06651 9.76156 4.06651 7.49999C4.06651 5.23841 5.90638 3.39855 8.16795 3.39855C10.4295 3.39855 12.2694 5.23841 12.2694 7.49999C12.2694 9.76156 10.4295 11.6014 8.16795 11.6014ZM12.3675 4.3658C11.6991 4.3658 11.1555 3.8222 11.1555 3.15387C11.1555 2.48554 11.6991 1.94183 12.3675 1.94183C13.0358 1.94183 13.5795 2.48554 13.5795 3.15387C13.5795 3.8222 13.0358 4.3658 12.3675 4.3658Z" fill="#555555"/>
    <path d="M8.16788 4.27783C6.3913 4.27783 4.9458 5.72322 4.9458 7.49991C4.9458 9.27649 6.3913 10.722 8.16788 10.722C9.94457 10.722 11.39 9.27649 11.39 7.49991C11.39 5.72322 9.94457 4.27783 8.16788 4.27783Z" fill="#555555"/>
    <path d="M12.3672 2.82129C12.1839 2.82129 12.0347 2.97052 12.0347 3.15385C12.0347 3.33719 12.1839 3.48642 12.3672 3.48642C12.5507 3.48642 12.6999 3.3373 12.6999 3.15385C12.6999 2.97041 12.5507 2.82129 12.3672 2.82129Z" fill="#555555"/>
</svg>
