<svg width="16" height="15" viewBox="0 0 16 15" fill="none" xmlns="http://www.w3.org/2000/svg">
<g clip-path="url(#clip0)">
<path d="M15.6643 15.0001V14.9995H15.668V9.49826C15.668 6.80701 15.0886 4.73389 11.9424 4.73389C10.4299 4.73389 9.41489 5.56389 9.00051 6.35076H8.95676V4.98514H5.97363V14.9995H9.07989V10.0408C9.07989 8.73514 9.32739 7.47264 10.9443 7.47264C12.5374 7.47264 12.5611 8.96264 12.5611 10.1245V15.0001H15.6643Z" fill="#555555"/>
<path d="M0.915527 4.98535H4.02553V14.9997H0.915527V4.98535Z" fill="#555555"/>
<path d="M2.46922 0C1.47484 0 0.667969 0.806875 0.667969 1.80125C0.667969 2.79562 1.47484 3.61937 2.46922 3.61937C3.46359 3.61937 4.27047 2.79562 4.27047 1.80125C4.26984 0.806875 3.46297 0 2.46922 0V0Z" fill="#555555"/>
</g>
<defs>
<clipPath id="clip0">
<rect width="15" height="15" fill="white" transform="translate(0.667969)"/>
</clipPath>
</defs>
</svg>
