<svg width="20" height="18" viewBox="0 0 20 18" fill="none" xmlns="http://www.w3.org/2000/svg">
<path d="M18.5408 1.90099C17.5543 0.781689 16.1859 0.165283 14.6875 0.165283C12.5802 0.165283 11.246 1.42388 10.4979 2.47974C10.3038 2.75372 10.1386 3.02845 10 3.28696C9.86137 3.02845 9.69629 2.75372 9.50215 2.47974C8.75402 1.42388 7.41984 0.165283 5.3125 0.165283C3.81414 0.165283 2.44566 0.781729 1.45918 1.90103C0.518242 2.96876 0 4.39876 0 5.92759C0 7.59177 0.649727 9.13962 2.04473 10.7987C3.29148 12.2815 5.08512 13.8099 7.16211 15.5798C7.93605 16.2393 8.73641 16.9214 9.58848 17.6669L9.61406 17.6893C9.72453 17.786 9.86227 17.8343 10 17.8343C10.1377 17.8343 10.2755 17.786 10.3859 17.6893L10.4115 17.6669C11.2636 16.9214 12.0639 16.2394 12.838 15.5797C14.9149 13.81 16.7085 12.2815 17.9553 10.7987C19.3503 9.13958 20 7.59177 20 5.92759C20 4.39876 19.4818 2.96876 18.5408 1.90099ZM12.0779 14.6879C11.4107 15.2564 10.724 15.8415 10 16.4709C9.27602 15.8416 8.58934 15.2564 7.92203 14.6878C3.85723 11.224 1.17188 8.93567 1.17188 5.92759C1.17188 4.68423 1.58613 3.52938 2.33836 2.67583C3.09922 1.81259 4.15543 1.33716 5.3125 1.33716C6.9191 1.33716 7.95766 2.32692 8.54594 3.15724C9.07363 3.90192 9.34898 4.65263 9.44289 4.94079C9.52145 5.182 9.74633 5.34524 10 5.34524C10.2537 5.34524 10.4786 5.182 10.5571 4.94079C10.651 4.65263 10.9264 3.90192 11.4541 3.1572C12.0423 2.32692 13.0809 1.33716 14.6875 1.33716C15.8446 1.33716 16.9008 1.81259 17.6616 2.67583C18.4139 3.52938 18.8281 4.68423 18.8281 5.92759C18.8281 8.93567 16.1428 11.224 12.0779 14.6879Z" fill="white"/>
</svg>
