<svg width="20" height="20" viewBox="0 0 20 20" fill="none" xmlns="http://www.w3.org/2000/svg">
<path d="M2.00001 12C3.10459 12 4.00003 11.1046 4.00003 10C4.00003 8.89543 3.10459 8 2.00001 8C0.895437 8 0 8.89543 0 10C0 11.1046 0.895437 12 2.00001 12Z" fill="white"/>
<path d="M10 12C11.1046 12 12 11.1046 12 10C12 8.89543 11.1046 8 10 8C8.89544 8 8 8.89543 8 10C8 11.1046 8.89544 12 10 12Z" fill="white"/>
<path d="M18 12C19.1046 12 20 11.1046 20 10C20 8.89543 19.1046 8 18 8C16.8954 8 16 8.89543 16 10C16 11.1046 16.8954 12 18 12Z" fill="white"/>
</svg>
