<svg width="160" height="39" viewBox="0 0 160 39" fill="none" xmlns="http://www.w3.org/2000/svg">
<path d="M152.733 22.7433L144.589 30.8872L140.056 26.3547L148.2 18.2108L144.578 14.5889L132.773 26.3938L144.546 38.1663L156.351 26.3613L152.733 22.7433Z" fill="#F4F4F4"/>
<path d="M160 15.3819L144.619 -3.8147e-05L129.194 15.4249L129.243 22.6347L144.553 7.32475L159.975 22.7466L160 15.3819Z" fill="#F4F4F4"/>
<path d="M74.2092 38.3645V7.68195H79.1491V33.9912H87.3968V38.3645H74.2092Z" fill="#F4F4F4"/>
<path d="M118.574 38.3645L114.957 27.3849L111.34 38.3645H105.916L112.134 22.5383L106.401 7.82757H111.826L114.957 18.0349L118.088 7.82757H123.514L117.647 22.5383L123.998 38.3645H118.574Z" fill="#F4F4F4"/>
<path d="M30.7677 31.6133C30.7677 33.1501 29.5222 34.3956 27.9854 34.3956H26.0443C24.5076 34.3956 23.262 33.1501 23.262 31.6133V14.4874C23.262 12.9506 24.5076 11.7051 26.0443 11.7051H27.9854C29.5222 11.7051 30.7677 12.9506 30.7677 14.4874V31.6133ZM29.1136 7.44456H24.9158C21.4685 7.44456 18.6738 10.2396 18.6738 13.6869V32.4134C18.6738 35.8611 21.4685 38.6558 24.9158 38.6558H29.1136C32.5612 38.6558 35.3559 35.8611 35.3559 32.4134V13.6869C35.3559 10.2396 32.5612 7.44456 29.1136 7.44456Z" fill="#F4F4F4"/>
<path d="M100.196 7.72302V31.6133C100.196 33.1497 98.95 34.3956 97.4133 34.3956H95.8134C94.277 34.3956 93.0311 33.1497 93.0311 31.6133V7.72302H88.4429V32.4134C88.4429 35.8611 91.2375 38.6558 94.6852 38.6558H98.5414C101.989 38.6558 104.784 35.8611 104.784 32.4134V7.72302H100.196Z" fill="#F4F4F4"/>
<path d="M43.1961 38.342V14.5354C43.1961 12.9986 44.4416 11.7531 45.9784 11.7531H47.5783C49.1147 11.7531 50.3606 12.9986 50.3606 14.5354V38.342H54.9488V13.7349C54.9488 10.2876 52.1541 7.49256 48.7065 7.49256H44.8502C41.4026 7.49256 38.6079 10.2876 38.6079 13.7349V38.342H43.1961Z" fill="#F4F4F4"/>
<path d="M16.3726 13.6358C16.3726 10.1881 13.578 7.39344 10.1303 7.39344H6.24232C2.79468 7.39344 0 10.1881 0 13.6358V32.4138C0 35.8611 2.79468 38.6558 6.24232 38.6558H10.1303C13.578 38.6558 16.3726 35.8611 16.3726 32.4138V29.7044H11.9723C11.937 30.5816 11.8657 31.3395 11.7709 31.8778C11.6376 33.2903 10.4494 34.3956 9.00214 34.3956H7.37049C5.83412 34.3956 4.58821 33.1501 4.58821 31.6133V14.4359C4.58821 12.8995 5.83412 11.654 7.37049 11.654H9.00214C10.1268 11.654 11.0935 12.3225 11.5319 13.2829C11.7445 13.5703 11.9161 14.7589 11.9746 16.3088H16.3726V13.6358Z" fill="#F4F4F4"/>
<path d="M71.5958 7.68207H61.8353L61.8361 7.68323C60.0038 7.68323 58.507 9.11891 58.4082 10.9264V38.3669H63.3481V25.0287H70.449V20.6558H63.3481V14.2396L63.3667 14.2602C63.3667 12.5712 63.8178 12.0565 65.5703 12.0565L65.5684 12.0553H71.5958V7.68207Z" fill="#F4F4F4"/>
</svg>
