<svg width="161" height="31" viewBox="0 0 161 31" fill="none" xmlns="http://www.w3.org/2000/svg">
<path d="M10.5014 25.0749C14.0466 25.0749 18.7149 23.3295 18.7149 17.6827C18.7149 13.884 16.2228 11.9675 11.063 10.2221C8.39537 9.2639 6.57015 8.47677 5.55224 7.82653C4.56942 7.1763 4.07802 6.2865 4.07802 5.12292C4.07802 2.48775 6.11384 0.913491 8.78148 0.913491C12.0458 0.913491 14.6784 3.48021 17.5215 8.819H17.5917L17.1354 0.742376C16.6089 0.845046 16.0824 0.913491 15.5559 0.913491C14.9592 0.913491 13.9764 0.845046 12.6776 0.673931C11.3789 0.502816 10.2206 0.400146 9.16759 0.400146C5.51714 0.434369 0.77857 2.45353 0.81367 7.75809C0.81367 9.50346 1.30508 10.9408 2.32299 12.0702C3.34091 13.1995 5.20123 14.2262 7.83377 15.0818C9.9398 15.8005 10.9928 16.1769 12.3968 16.8614C13.1339 17.2036 13.6604 17.5459 14.0466 17.8539C14.8539 18.5041 15.4155 19.3597 15.4155 20.3521C15.4155 23.0558 13.6604 24.5616 10.8875 24.5616C8.88678 24.5616 6.95625 23.5349 5.69264 22.4055C5.06083 21.8237 4.42902 21.105 3.83231 20.181C3.2356 19.257 2.7442 18.4699 2.42829 17.8539C2.11239 17.2036 1.72628 16.4507 1.34018 15.5609H1.26998V25.0065C2.07729 24.5616 3.1303 24.322 4.35882 24.3562C4.92043 24.3562 5.90324 24.4589 7.27216 24.6985C8.67618 24.938 9.76429 25.0749 10.5014 25.0749Z" fill="#F4F4F4"/>
<path d="M36.1489 7.58697H29.6202V7.65542C30.9189 8.3741 31.1646 9.5719 31.1646 11.7622V22.4397C30.3573 22.9531 29.5149 23.2269 28.6725 23.2269C27.5844 23.2269 27.0579 22.5766 27.0579 21.2419V7.58697H20.2133V7.65542C21.863 8.47677 22.0736 9.5719 22.0736 11.7622V22.0633C22.0736 23.7402 22.9862 24.9038 25.2326 24.9038C26.9526 24.9038 28.9533 24.2536 31.1646 22.9531V24.6985H38.0092V24.63C36.4297 23.8087 36.1489 22.7135 36.1489 20.5233V7.58697Z" fill="#F4F4F4"/>
<path d="M46.7753 24.6985C49.0217 24.6985 51.1628 23.9798 52.9881 22.6109C54.8133 21.2077 56.0067 18.6752 56.0067 15.6294C56.0067 10.2906 52.5669 7.58697 47.2667 7.58697H39.1234V7.65542C40.7731 8.47677 40.9837 9.5719 40.9837 11.7622V26.6834C40.9837 28.8737 40.7731 29.9688 39.1234 30.7901V30.8586H47.8283V30.7901C46.1786 29.9688 45.968 28.8737 45.968 26.6834V24.6985H46.7753ZM46.0382 8.06609C47.372 8.06609 48.4952 9.05856 49.4429 11.0093C50.3906 12.96 50.882 15.3556 50.882 18.1276C50.882 20.5575 50.531 22.166 49.8641 22.9873C49.1972 23.8087 48.2144 24.2193 46.9508 24.2193H45.968V8.06609H46.0382Z" fill="#F4F4F4"/>
<path d="M68.6256 21.1735C67.2567 21.1735 65.9931 20.6601 64.905 19.5992C63.8168 18.5383 63.2552 16.8956 63.185 14.7054H73.645C73.5046 12.4124 72.8026 10.6328 71.5039 9.29812C70.2051 7.96343 68.6607 7.27896 66.8004 7.27896C63.0797 7.27896 58.7273 10.1879 58.7273 16.1769C58.7273 19.0174 59.4995 21.1735 61.0439 22.7135C62.5883 24.2536 64.3785 25.0065 66.3792 25.0065C68.0991 25.0065 69.5382 24.4247 70.7667 23.2269C71.9953 22.0291 72.8377 20.6259 73.3642 19.0174L73.294 18.9832C71.7496 20.4548 70.2051 21.1735 68.6256 21.1735ZM66.0633 7.68964C67.713 7.68964 68.9064 10.359 69.0468 14.2262H63.185C63.185 9.98258 64.6593 7.68964 66.0633 7.68964Z" fill="#F4F4F4"/>
<path d="M88.6348 11.9333C88.1785 8.64788 86.248 7.58697 83.2995 7.58697H75.1562V7.65542C76.8059 8.47677 77.0165 9.5719 77.0165 11.7622V20.5233C77.0165 22.7135 76.8059 23.8087 75.1562 24.63V24.6985H83.8611V24.63C82.2114 23.8087 82.0008 22.7135 82.0008 20.5233V7.99765H82.071C82.8783 7.99765 83.5101 8.61366 83.9313 9.81146C84.3525 11.0093 84.528 12.4466 84.4227 14.192L88.6348 11.9333Z" fill="#F4F4F4"/>
<path d="M104.664 12.5835C108.139 11.8648 110.035 9.87991 110.035 7.1763C110.035 5.15714 109.262 3.58288 107.718 2.45352C106.209 1.32417 104.454 0.742376 102.453 0.742376H89.9571V0.810823C91.6068 1.5295 92.5896 3.10376 92.5896 4.91758V20.5233C92.5896 22.3371 91.6068 23.9113 89.9571 24.63V24.6985H100.698V24.63C99.1183 23.9113 98.1004 22.3371 98.1004 20.5233V12.7546C98.5567 12.7889 98.9077 12.96 99.1885 13.268C99.4693 13.5418 100.171 14.7054 101.259 16.7245L106.068 24.6985H113.404V24.63C112.457 24.1167 111.017 22.4055 109.087 19.4281L104.664 12.5835ZM98.7322 1.2215C100.312 1.2215 101.646 1.83751 102.734 3.03532C103.822 4.23312 104.383 5.73893 104.383 7.55275C104.383 10.9408 102.523 12.4809 100.031 12.4809C99.2938 12.4809 98.6269 12.4466 98.1004 12.344V1.2215H98.7322Z" fill="#F4F4F4"/>
<path d="M127.972 11.3515C127.972 8.99011 126.568 7.34741 123.339 7.34741C121.795 7.34741 119.899 7.55275 117.653 7.9292L114.739 11.728L114.81 11.7964C117.793 9.19545 119.934 7.89498 121.163 7.89498C122.426 7.89498 123.199 9.02434 123.199 10.5301C123.199 11.4884 122.883 12.2755 122.251 12.9258C121.619 13.5418 120.391 14.3631 118.6 15.424C116.881 16.4165 115.687 17.2379 115.02 17.9565C114.353 18.6752 114.002 19.5992 114.002 20.797C114.002 21.858 114.388 22.782 115.126 23.6375C115.898 24.4589 117.021 24.8696 118.46 24.8696C119.724 24.8696 121.268 24.1167 123.058 22.6451V24.6985H129.833V24.63C128.183 23.8087 127.972 22.7135 127.972 20.5233V11.3515ZM121.093 23.1926C119.934 23.1926 118.706 21.6526 118.706 19.7019V19.3255C118.741 17.7854 119.127 16.5876 119.794 15.732C120.18 15.2529 121.268 14.2947 123.058 12.8915V20.8655C123.058 22.2686 122.216 23.1926 121.093 23.1926Z" fill="#F4F4F4"/>
<path d="M144.535 11.9333C144.079 8.64788 142.148 7.58697 139.2 7.58697H131.056V7.65542C132.706 8.47677 132.917 9.5719 132.917 11.7622V20.5233C132.917 22.7135 132.706 23.8087 131.056 24.63V24.6985H139.761V24.63C138.112 23.8087 137.901 22.7135 137.901 20.5233V7.99765H137.971C138.779 7.99765 139.41 8.61366 139.832 9.81146C140.253 11.0093 140.428 12.4466 140.323 14.192L144.535 11.9333Z" fill="#F4F4F4"/>
<path d="M155.794 21.1735C154.425 21.1735 153.162 20.6601 152.073 19.5992C150.985 18.5383 150.424 16.8956 150.354 14.7054H160.813C160.673 12.4124 159.971 10.6328 158.672 9.29812C157.374 7.96343 155.829 7.27896 153.969 7.27896C150.248 7.27896 145.896 10.1879 145.896 16.1769C145.896 19.0174 146.668 21.1735 148.212 22.7135C149.757 24.2536 151.547 25.0065 153.548 25.0065C155.268 25.0065 156.707 24.4247 157.935 23.2269C159.164 22.0291 160.006 20.6259 160.533 19.0174L160.462 18.9832C158.918 20.4548 157.374 21.1735 155.794 21.1735ZM153.232 7.68964C154.881 7.68964 156.075 10.359 156.215 14.2262H150.354C150.354 9.98258 151.828 7.68964 153.232 7.68964Z" fill="#F4F4F4"/>
</svg>
