<svg width="14" height="14" viewBox="0 0 14 14" fill="none" xmlns="http://www.w3.org/2000/svg">
<path d="M13.2132 1.95393H5.18134C4.96053 1.29809 4.3402 0.824249 3.61084 0.824249C2.88149 0.824249 2.26116 1.29809 2.04034 1.95393H0.786636C0.495402 1.95393 0.259293 2.19003 0.259293 2.48127C0.259293 2.7725 0.495402 3.00861 0.786636 3.00861H2.04038C2.2612 3.66445 2.88153 4.13829 3.61088 4.13829C4.34023 4.13829 4.96056 3.66445 5.18138 3.00861H13.2132C13.5044 3.00861 13.7406 2.7725 13.7406 2.48127C13.7406 2.19003 13.5044 1.95393 13.2132 1.95393ZM3.61084 3.0836C3.27872 3.0836 3.00851 2.81339 3.00851 2.48127C3.00851 2.14915 3.27872 1.87894 3.61084 1.87894C3.94297 1.87894 4.21318 2.14915 4.21318 2.48127C4.21318 2.81339 3.94297 3.0836 3.61084 3.0836Z" fill="white"/>
<path d="M13.2132 6.47266H11.9594C11.7386 5.81682 11.1183 5.34299 10.3889 5.34299C9.65962 5.34299 9.03929 5.81682 8.81847 6.47266H0.786636C0.495402 6.47266 0.259293 6.70877 0.259293 7.00001C0.259293 7.29124 0.495402 7.52735 0.786636 7.52735H8.81847C9.03929 8.18319 9.65965 8.65703 10.389 8.65703C11.1183 8.65703 11.7387 8.18319 11.9595 7.52735H13.2132C13.5044 7.52735 13.7406 7.29124 13.7406 7.00001C13.7406 6.70877 13.5044 6.47266 13.2132 6.47266ZM10.389 7.60234C10.0568 7.60234 9.78664 7.33213 9.78664 7.00001C9.78664 6.66789 10.0568 6.39767 10.389 6.39767C10.7211 6.39767 10.9913 6.66789 10.9913 7.00001C10.9913 7.33213 10.7211 7.60234 10.389 7.60234Z" fill="white"/>
<path d="M13.2132 10.9914H7.44073C7.21991 10.3356 6.59958 9.86174 5.87023 9.86174C5.14088 9.86174 4.52055 10.3356 4.29973 10.9914H0.786636C0.495402 10.9914 0.259293 11.2275 0.259293 11.5188C0.259293 11.81 0.495402 12.0461 0.786636 12.0461H4.29973C4.52055 12.7019 5.14088 13.1758 5.87023 13.1758C6.59958 13.1758 7.21991 12.7019 7.44073 12.0461H13.2132C13.5044 12.0461 13.7406 11.81 13.7406 11.5188C13.7406 11.2275 13.5044 10.9914 13.2132 10.9914ZM5.87023 12.1211C5.53811 12.1211 5.2679 11.8509 5.2679 11.5188C5.2679 11.1867 5.53811 10.9165 5.87023 10.9165C6.20235 10.9165 6.47256 11.1866 6.47256 11.5188C6.47256 11.8509 6.20235 12.1211 5.87023 12.1211Z" fill="white"/>
</svg>
